 <svg version="1.0" xmlns="http://www.w3.org/2000/svg" width="700.000000pt" height="700.000000pt" viewBox="0 0 700.000000 700.000000" preserveAspectRatio="xMidYMid meet">
<metadata>
Created by potrace 1.12, written by Peter Selinger 2001-2015
</metadata>
<g transform="translate(0.000000,700.000000) scale(0.100000,-0.100000)" fill="#000000" stroke="none">
<path d="M0 3500 l0 -3500 3500 0 3500 0 0 3500 0 3500 -3500 0 -3500 0 0
-3500z m3075 2286 c124 -21 271 -57 340 -84 55 -20 220 -103 276 -138 104 -65
134 -89 237 -192 116 -115 174 -187 241 -297 23 -38 46 -77 51 -85 25 -42 72
-148 89 -205 11 -35 24 -72 29 -82 13 -24 36 -114 63 -248 18 -92 21 -142 21
-315 -1 -113 -5 -227 -11 -255 -5 -27 -16 -88 -24 -135 -9 -47 -25 -115 -37
-150 -33 -97 -100 -264 -111 -274 -5 -6 -9 -18 -9 -28 0 -9 -6 -21 -13 -25 -7
-4 -30 -37 -51 -73 -56 -93 -115 -168 -214 -272 -79 -83 -239 -218 -258 -218
-4 0 -15 -7 -24 -15 -22 -20 -248 -136 -285 -146 -16 -4 -64 -19 -105 -32 -41
-13 -101 -32 -132 -41 -32 -9 -60 -20 -62 -25 -3 -4 -1 -35 5 -67 6 -32 14
-89 18 -125 5 -36 13 -74 18 -85 6 -10 13 -35 17 -54 13 -68 99 -221 161 -288
96 -103 264 -198 386 -217 24 -3 79 -13 123 -22 93 -18 439 -14 521 6 221 55
329 112 447 235 64 68 168 234 168 271 1 11 7 31 15 45 8 14 14 38 15 53 0 16
8 54 18 85 15 52 17 112 16 652 -1 511 -3 606 -18 675 -9 44 -16 93 -16 108 0
16 -7 51 -16 78 -25 77 -64 90 -304 104 -104 7 -152 55 -152 153 0 50 5 67 27
96 15 19 35 38 45 41 36 11 1256 8 1278 -4 25 -14 59 -60 73 -101 9 -25 7 -40
-11 -82 -34 -79 -56 -95 -146 -102 -212 -16 -263 -32 -284 -88 -12 -31 -16
-63 -39 -303 -6 -55 -11 -332 -11 -615 -1 -283 -6 -542 -11 -575 -5 -33 -13
-87 -18 -120 -7 -56 -25 -125 -51 -205 -21 -62 -103 -223 -145 -284 -153 -225
-393 -375 -745 -465 -395 -100 -971 -73 -1326 64 -131 50 -149 59 -238 119
-222 149 -367 363 -416 616 -5 25 -13 59 -18 75 -6 17 -14 71 -18 120 -4 50
-10 116 -13 149 l-6 58 -60 19 c-33 10 -87 26 -120 35 -131 36 -190 58 -307
117 -316 160 -572 422 -720 737 -19 41 -39 86 -43 100 -4 14 -11 30 -15 35 -7
9 -33 94 -59 195 -7 25 -16 79 -21 120 -5 41 -14 110 -19 153 -28 208 28 568
126 807 15 38 116 242 136 275 82 137 325 387 465 479 223 145 472 237 722
266 52 6 97 13 100 16 10 11 368 -4 455 -20z m2085 -4426 c0 -33 -4 -60 -10
-60 -5 0 -10 20 -10 44 0 24 -3 51 -6 60 -4 11 -1 16 10 16 13 0 16 -12 16
-60z m220 -6 c0 -30 -4 -54 -9 -54 -15 0 -31 81 -20 102 17 31 29 10 29 -48z
m-100 41 c0 -8 9 -24 20 -35 24 -24 26 -50 5 -50 -8 0 -15 8 -15 19 0 10 -10
25 -22 33 -14 9 -19 20 -15 31 8 21 27 22 27 2z"></path>
<path d="M2590 5459 c-101 -15 -219 -43 -248 -59 -161 -88 -224 -131 -292
-199 -42 -42 -92 -101 -112 -131 -59 -90 -138 -254 -138 -285 0 -8 -4 -23 -9
-33 -31 -58 -71 -356 -71 -523 1 -153 37 -432 70 -534 5 -16 19 -61 31 -100
26 -83 136 -317 154 -327 7 -4 15 -18 19 -30 8 -33 140 -183 218 -248 36 -30
88 -66 114 -80 27 -14 57 -31 66 -39 10 -7 24 -11 32 -8 12 5 14 71 13 470
l-2 464 -29 41 c-15 23 -36 44 -45 47 -9 3 -78 9 -153 14 -156 10 -188 22
-218 81 -34 67 -21 148 34 199 l25 23 700 0 c385 0 709 -3 718 -6 34 -11 73
-85 73 -139 0 -53 -32 -123 -59 -131 -36 -11 -142 -25 -227 -32 -103 -7 -128
-20 -153 -80 -14 -34 -16 -101 -16 -509 l0 -470 23 -3 c12 -2 36 4 54 12 17 9
36 16 43 16 7 0 31 14 53 30 23 17 44 30 48 30 6 0 105 78 143 113 21 19 107
133 138 183 14 22 74 144 93 189 23 55 41 119 56 200 8 44 19 100 24 125 12
60 11 491 -1 555 -5 28 -15 86 -23 130 -39 214 -98 387 -183 532 -59 101 -82
134 -130 189 -154 177 -356 289 -563 315 -131 16 -203 18 -270 8z"></path>
</g>
</svg>