 <svg version="1.0" xmlns="http://www.w3.org/2000/svg" width="700.000000pt" height="700.000000pt" viewBox="0 0 700.000000 700.000000" preserveAspectRatio="xMidYMid meet">
<metadata>
Created by potrace 1.12, written by Peter Selinger 2001-2015
</metadata>
<g transform="translate(0.000000,700.000000) scale(0.100000,-0.100000)" fill="#000000" stroke="none">
<path d="M6501 1034 c0 -11 3 -14 6 -6 3 7 2 16 -1 19 -3 4 -6 -2 -5 -13z"></path>
<path d="M6407 843 c-13 -12 -7 -23 13 -23 11 0 20 7 20 15 0 15 -21 21 -33 8z"></path>
<path d="M6320 762 c-19 -16 -20 -20 -9 -45 15 -34 5 -47 -49 -62 -33 -9 -37
-14 -40 -48 -3 -33 -7 -38 -42 -47 -21 -6 -41 -17 -44 -25 -3 -8 -16 -15 -29
-15 -26 0 -52 -22 -40 -33 14 -15 63 -7 73 12 5 11 24 22 40 26 17 4 36 15 43
26 6 10 17 19 22 19 6 0 41 28 78 63 59 55 67 67 67 99 0 23 -5 38 -16 42 -23
9 -30 8 -54 -12z"></path>
<path d="M5930 490 c-22 -19 -37 -20 -354 -20 -182 0 -434 -2 -561 -4 -126 -2
-304 -4 -395 -5 -99 -1 -160 -5 -155 -10 8 -7 1341 -18 1493 -12 35 1 88 43
77 61 -11 18 -81 11 -105 -10z"></path>
</g>
</svg>